<?xml version="1.0" encoding="UTF-8" standalone="no"?>
<!-- Created with Inkscape (http://www.inkscape.org/) -->

<svg
   width="20"
   height="20"
   viewBox="0 0 5.2916667 5.2916667"
   version="1.1"
   id="svg4407"
   inkscape:version="1.1.2 (b8e25be833, 2022-02-05)"
   sodipodi:docname="notes_demo.svg"
   xmlns:inkscape="http://www.inkscape.org/namespaces/inkscape"
   xmlns:sodipodi="http://sodipodi.sourceforge.net/DTD/sodipodi-0.dtd"
   xmlns:xlink="http://www.w3.org/1999/xlink"
   xmlns="http://www.w3.org/2000/svg"
   xmlns:svg="http://www.w3.org/2000/svg"
   xmlns:rdf="http://www.w3.org/1999/02/22-rdf-syntax-ns#"
   xmlns:cc="http://creativecommons.org/ns#"
   xmlns:dc="http://purl.org/dc/elements/1.1/">
  <defs
     id="defs4401">
    <linearGradient
       id="linearGradient1935"
       inkscape:collect="always">
      <stop
         id="stop1931"
         offset="0"
         style="stop-color:#dbdbdb;stop-opacity:1" />
      <stop
         id="stop1933"
         offset="1"
         style="stop-color:#ffffff;stop-opacity:1" />
    </linearGradient>
    <linearGradient
       inkscape:collect="always"
       xlink:href="#linearGradient1935"
       id="linearGradient4985"
       x1="4.2322721"
       y1="65.823776"
       x2="12.521172"
       y2="56.894089"
       gradientUnits="userSpaceOnUse"
       gradientTransform="translate(18.594628,-1.632148)" />
    <linearGradient
       inkscape:collect="always"
       xlink:href="#linearGradient1935"
       id="linearGradient5146"
       gradientUnits="userSpaceOnUse"
       x1="5.6470833"
       y1="73.281136"
       x2="11.827924"
       y2="65.343636"
       gradientTransform="translate(18.648419,38.181878)" />
    <linearGradient
       inkscape:collect="always"
       xlink:href="#linearGradient1935"
       id="linearGradient5186"
       gradientUnits="userSpaceOnUse"
       gradientTransform="translate(18.354274,38.059316)"
       x1="4.8394475"
       y1="89.146431"
       x2="12.297809"
       y2="81.605804" />
    <linearGradient
       inkscape:collect="always"
       xlink:href="#linearGradient1935"
       id="linearGradient5226"
       x1="-31.647053"
       y1="111.2722"
       x2="-23.21524"
       y2="102.94675"
       gradientUnits="userSpaceOnUse"
       gradientTransform="translate(53.943473,32.418764)" />
    <linearGradient
       inkscape:collect="always"
       xlink:href="#linearGradient1935"
       id="linearGradient5290"
       x1="5.0514431"
       y1="209.68726"
       x2="12.149689"
       y2="202.16107"
       gradientUnits="userSpaceOnUse"
       gradientTransform="translate(18.326409,-34.654509)" />
    <linearGradient
       gradientTransform="matrix(0.98516531,0,0,0.99999997,-227.02542,181.31362)"
       gradientUnits="userSpaceOnUse"
       y2="99.473969"
       x2="228.73648"
       y1="105.27372"
       x1="224.1391"
       id="linearGradient2812"
       xlink:href="#linearGradient2810" />
    <linearGradient
       id="linearGradient2810">
      <stop
         id="stop2806"
         offset="0"
         style="stop-color:#1458ae;stop-opacity:1;" />
      <stop
         id="stop2808"
         offset="1"
         style="stop-color:#4388e0;stop-opacity:1" />
    </linearGradient>
    <linearGradient
       gradientTransform="matrix(0.70366632,0,0,0.71426216,-156.21359,210.41516)"
       gradientUnits="userSpaceOnUse"
       y2="99.473969"
       x2="228.73648"
       y1="105.27372"
       x1="224.1391"
       id="linearGradient2812-9"
       xlink:href="#linearGradient2810" />
  </defs>
  <sodipodi:namedview
     id="base"
     pagecolor="#ffffff"
     bordercolor="#666666"
     borderopacity="1.0"
     inkscape:pageopacity="0.0"
     inkscape:pageshadow="2"
     inkscape:zoom="16"
     inkscape:cx="6.09375"
     inkscape:cy="6.4375"
     inkscape:document-units="mm"
     inkscape:current-layer="layer1"
     showgrid="false"
     units="px"
     inkscape:window-width="1920"
     inkscape:window-height="1177"
     inkscape:window-x="1912"
     inkscape:window-y="-8"
     inkscape:window-maximized="1"
     inkscape:pagecheckerboard="0" />
  <metadata
     id="metadata4404">
    <rdf:RDF>
      <cc:Work
         rdf:about="">
        <dc:format>image/svg+xml</dc:format>
        <dc:type
           rdf:resource="http://purl.org/dc/dcmitype/StillImage" />
      </cc:Work>
    </rdf:RDF>
  </metadata>
  <g
     inkscape:label="Layer 1"
     inkscape:groupmode="layer"
     id="layer1"
     transform="translate(0,-281.12498)">
    <path
       d="m 7.2104756,282.46038 q -0.00418,-0.0815 0.05434,-0.14003 0.06061,-0.0585 0.1421197,-0.0585 h 0.449349 q 0.08151,0 0.1400297,0.0585 0.06061,0.0585 0.05643,0.14003 l -0.05852,1.71588 q -0.00418,0.0815 -0.06061,0.13794 -0.05643,0.0543 -0.1358497,0.0543 H 7.467545 q -0.08151,0 -0.1379397,-0.0543 -0.05434,-0.0564 -0.05852,-0.13794 z m 0.5517587,2.12134 q 0.2821493,0 0.2821493,0.28424 v 0.13167 q 0,0.13167 -0.07315,0.20691 -0.07106,0.0752 -0.2089995,0.0752 H 7.5051649 q -0.1379397,0 -0.2110895,-0.0752 -0.07106,-0.0752 -0.07106,-0.20691 v -0.13167 q 0,-0.13794 0.07315,-0.21109 0.07315,-0.0731 0.2089995,-0.0731 z"
       style="font-size:4.28031px;line-height:1.25;font-family:'Days One';-inkscape-font-specification:'Days One';fill:#ffffff;fill-opacity:1;stroke-width:0.107008"
       id="path4417" />
    <path
       style="fill:url(#linearGradient2812-9);fill-opacity:1;stroke:none;stroke-width:0.185095;stroke-miterlimit:4;stroke-dasharray:none;stroke-opacity:1"
       d="m 2.6572754,281.12504 c -0.337577,-0.002 -0.6756683,0.1589 -1.2302277,0.48057 -1.10910482,0.64335 -1.23234956,0.85744 -1.23797888,2.1541 -0.005651,1.29665 0.11570721,1.51187 1.21915448,2.16517 1.1034474,0.65332 1.3472903,0.65443 2.4563953,0.011 1.1090976,-0.64336 1.2323502,-0.85744 1.2379787,-2.1541 0.00566,-1.29666 -0.1157072,-1.51187 -1.2191545,-2.16517 -0.5517306,-0.32665 -0.8885976,-0.49022 -1.2261674,-0.49165 z m -0.00591,0.85595 c 0.0075,-1.1e-4 0.014874,-1.6e-4 0.022516,0 0.47742,0.011 0.9980281,0.53963 1.2689836,1.06303 0.2762133,0.53357 0.434246,1.03903 0.3691051,1.68791 -0.028335,0.2825 -0.2973047,0.64306 -0.6193585,0.82384 0.068448,-0.56031 0.029941,-1.10848 -0.094491,-1.56352 -0.1244384,-0.45505 -0.4960101,-1.19298 -0.9345742,-1.19369 -0.4385571,-7.2e-4 -0.8097666,0.73716 -0.9342054,1.19221 -0.1243959,0.45506 -0.1629172,1.00321 -0.094491,1.56353 -0.3220536,-0.18077 -0.5910023,-0.54134 -0.6193585,-0.82385 -0.0650836,-0.64888 0.092893,-1.15398 0.3691052,-1.68755 0.2719053,-0.52522 0.7950775,-1.0562 1.2667687,-1.06191 z m 0.023253,1.55873 a 0.43299531,0.43299531 0 0 1 0.3775946,0.22885 0.43299531,0.43299531 0 0 1 -0.1782779,0.58613 0.43299531,0.43299531 0 0 1 -0.5857699,-0.17827 0.43299531,0.43299531 0 0 1 0.1782778,-0.58577 0.43299531,0.43299531 0 0 1 0.2081754,-0.0509 z"
       id="path10271" />
  </g>
</svg>
