<?xml version="1.0" encoding="UTF-8" standalone="no"?>
<!-- Created with Inkscape (http://www.inkscape.org/) -->

<svg
   xmlns:dc="http://purl.org/dc/elements/1.1/"
   xmlns:cc="http://creativecommons.org/ns#"
   xmlns:rdf="http://www.w3.org/1999/02/22-rdf-syntax-ns#"
   xmlns:svg="http://www.w3.org/2000/svg"
   xmlns="http://www.w3.org/2000/svg"
   xmlns:xlink="http://www.w3.org/1999/xlink"
   xmlns:sodipodi="http://sodipodi.sourceforge.net/DTD/sodipodi-0.dtd"
   xmlns:inkscape="http://www.inkscape.org/namespaces/inkscape"
   width="91"
   height="100"
   viewBox="0 0 24.077083 26.458333"
   version="1.1"
   id="svg5409"
   inkscape:version="0.92.4 (5da689c313, 2019-01-14)"
   sodipodi:docname="logo_black.svg">
  <defs
     id="defs5403">
    <linearGradient
       id="linearGradient1935"
       inkscape:collect="always">
      <stop
         id="stop1931"
         offset="0"
         style="stop-color:#dbdbdb;stop-opacity:1" />
      <stop
         id="stop1933"
         offset="1"
         style="stop-color:#ffffff;stop-opacity:1" />
    </linearGradient>
    <linearGradient
       inkscape:collect="always"
       xlink:href="#linearGradient1935"
       id="linearGradient6020"
       gradientUnits="userSpaceOnUse"
       gradientTransform="translate(624.17669,38.059316)"
       x1="4.8394475"
       y1="89.146431"
       x2="12.297809"
       y2="81.605804" />
  </defs>
  <sodipodi:namedview
     id="base"
     pagecolor="#ffffff"
     bordercolor="#666666"
     borderopacity="1.0"
     inkscape:pageopacity="0.0"
     inkscape:pageshadow="2"
     inkscape:zoom="4.59375"
     inkscape:cx="47.319097"
     inkscape:cy="49.174871"
     inkscape:document-units="mm"
     inkscape:current-layer="layer1"
     showgrid="false"
     units="px"
     inkscape:window-width="1920"
     inkscape:window-height="1013"
     inkscape:window-x="-9"
     inkscape:window-y="-9"
     inkscape:window-maximized="1" />
  <metadata
     id="metadata5406">
    <rdf:RDF>
      <cc:Work
         rdf:about="">
        <dc:format>image/svg+xml</dc:format>
        <dc:type
           rdf:resource="http://purl.org/dc/dcmitype/StillImage" />
        <dc:title></dc:title>
      </cc:Work>
    </rdf:RDF>
  </metadata>
  <g
     inkscape:label="Layer 1"
     inkscape:groupmode="layer"
     id="layer1"
     transform="translate(0,-270.54167)">
    <path
       style="display:inline;fill:#181818;fill-opacity:1;stroke:none;stroke-width:0.76424998;stroke-miterlimit:4;stroke-dasharray:none;stroke-opacity:1"
       d="m 12.097047,270.54171 c -1.39161,-0.006 -2.7873403,0.92092 -6.0227603,2.77321 -6.47086003,3.70458 -6.02344003,2.93615 -6.05645003,10.40257 -0.0329,7.46644 -0.47358,6.69405 5.96426003,10.45591 6.4378503,3.76185 5.5498703,3.7579 12.0207003,0.0533 6.47086,-3.70458 6.02344,-2.93615 6.05645,-10.40257 0.0329,-7.46644 0.47358,-6.69405 -5.96426,-10.45591 -3.21893,-1.88092 -4.60636,-2.82037 -5.99794,-2.82654 z m -0.011,2.37639 c 1.403,0.006 2.80307,0.67734 5.09613,2.01725 4.5861,2.67981 5.08933,3.56198 5.0658,8.88079 -0.0236,5.31883 -0.53449,6.19648 -5.1441,8.83549 -4.6096,2.63901 -5.62381,2.63449 -10.2099103,-0.0453 -4.58608,-2.67982 -5.0893,-3.56199 -5.0658,-8.88081 0.0237,-5.31882 0.53449,-6.19647 5.14411,-8.83549 2.3048,-1.3195 3.7107603,-1.97814 5.1137703,-1.97192 z m -0.12854,1.34809 c -2.2451403,0.0286 -4.7361303,2.55838 -6.0302903,5.06289 -1.31471,2.54426 -2.06696,4.9538 -1.75717,8.04794 0.1349,1.3471 1.41532,3.06652 2.94821,3.92854 -0.3258,-2.67183 -0.14229,-5.28588 0.45,-7.45577 0.5923,-2.16989 2.36019,-5.69069 4.4476303,-5.68596 2.08746,0.005 3.85531,3.52253 4.4476,5.69242 0.59227,2.16988 0.7758,4.78394 0.44999,7.45577 1.5329,-0.86202 2.81332,-2.58149 2.94821,-3.9286 0.30979,-3.09413 -0.44235,-5.50356 -1.75707,-8.04783 -1.28967,-2.49582 -3.76794,-5.01656 -6.04038,-5.06889 -0.0355,-7.9e-4 -0.0711,-9.5e-4 -0.10669,-5.1e-4 z m 0.10976,7.43199 a 2.0609558,2.0647148 0 0 0 -0.99053,0.24294 2.0609558,2.0647148 0 0 0 -0.84824,2.79357 2.0609558,2.0647148 0 0 0 2.78849,0.84978 2.0609558,2.0647148 0 0 0 0.84823,-2.79359 2.0609558,2.0647148 0 0 0 -1.79795,-1.0927 z"
       id="path4130"
       inkscape:connector-curvature="0"
       inkscape:export-filename="D:\Repos\art\design\app_manager\maket\dark\15_delete_application.png"
       inkscape:export-xdpi="96"
       inkscape:export-ydpi="96" />
  </g>
</svg>
